<svg width="20" height="20" viewBox="0 0 20 20" fill="none" xmlns="http://www.w3.org/2000/svg">
<rect width="20" height="20" fill="white"/>
<path d="M16.875 13.8387V6.16117C17.3015 6.05188 17.6915 5.83168 18.0053 5.52292C18.3192 5.21416 18.5458 4.82784 18.6621 4.4032C18.7783 3.97855 18.7802 3.5307 18.6674 3.10511C18.5546 2.67952 18.3312 2.29136 18.0199 1.98004C17.7085 1.66871 17.3204 1.44531 16.8948 1.33253C16.4692 1.21974 16.0214 1.22157 15.5967 1.33785C15.1721 1.45413 14.7858 1.68071 14.477 1.99457C14.1682 2.30844 13.948 2.69843 13.8387 3.12492H6.16124C6.05194 2.69843 5.83174 2.30844 5.52298 1.99457C5.21422 1.68071 4.82791 1.45413 4.40326 1.33785C3.97861 1.22157 3.53076 1.21974 3.10517 1.33253C2.67958 1.44531 2.29142 1.66871 1.9801 1.98004C1.66877 2.29136 1.44537 2.67952 1.33259 3.10511C1.2198 3.5307 1.22164 3.97855 1.33791 4.4032C1.45419 4.82784 1.68077 5.21416 1.99464 5.52292C2.3085 5.83168 2.69849 6.05188 3.12499 6.16117V13.8387C2.69849 13.948 2.3085 14.1682 1.99464 14.4769C1.68077 14.7857 1.45419 15.172 1.33791 15.5967C1.22164 16.0213 1.2198 16.4692 1.33259 16.8947C1.44537 17.3203 1.66877 17.7085 1.9801 18.0198C2.29142 18.3311 2.67958 18.5545 3.10517 18.6673C3.53076 18.7801 3.97861 18.7783 4.40326 18.662C4.82791 18.5457 5.21422 18.3191 5.52298 18.0053C5.83174 17.6914 6.05194 17.3014 6.16124 16.8749H13.8387C13.948 17.3014 14.1682 17.6914 14.477 18.0053C14.7858 18.3191 15.1721 18.5457 15.5967 18.662C16.0214 18.7783 16.4692 18.7801 16.8948 18.6673C17.3204 18.5545 17.7085 18.3311 18.0199 18.0198C18.3312 17.7085 18.5546 17.3203 18.6674 16.8947C18.7802 16.4692 18.7783 16.0213 18.6621 15.5967C18.5458 15.172 18.3192 14.7857 18.0053 14.4769C17.6915 14.1682 17.3015 13.948 16.875 13.8387ZM16.25 2.49992C16.4972 2.49992 16.7389 2.57324 16.9444 2.71059C17.15 2.84794 17.3102 3.04316 17.4048 3.27157C17.4994 3.49998 17.5242 3.75131 17.476 3.99379C17.4277 4.23626 17.3087 4.45899 17.1339 4.63381C16.9591 4.80862 16.7363 4.92767 16.4938 4.97591C16.2514 5.02414 16 4.99938 15.7716 4.90477C15.5432 4.81016 15.348 4.64995 15.2106 4.44439C15.0733 4.23883 15 3.99715 15 3.74992C15.0003 3.41851 15.1321 3.10076 15.3665 2.86641C15.6008 2.63206 15.9186 2.50026 16.25 2.49992ZM2.49999 3.74992C2.49999 3.5027 2.5733 3.26102 2.71065 3.05546C2.848 2.8499 3.04322 2.68968 3.27163 2.59507C3.50004 2.50047 3.75137 2.47571 3.99385 2.52394C4.23632 2.57217 4.45905 2.69123 4.63387 2.86604C4.80868 3.04086 4.92774 3.26359 4.97597 3.50606C5.0242 3.74854 4.99944 3.99987 4.90483 4.22828C4.81023 4.45669 4.65001 4.65191 4.44445 4.78926C4.23889 4.92661 3.99721 4.99992 3.74999 4.99992C3.41857 4.99959 3.10082 4.86779 2.86647 4.63344C2.63212 4.39909 2.50032 4.08134 2.49999 3.74992ZM3.74999 17.4999C3.50276 17.4999 3.26108 17.4266 3.05552 17.2893C2.84996 17.1519 2.68975 16.9567 2.59514 16.7283C2.50053 16.4999 2.47577 16.2485 2.524 16.0061C2.57224 15.7636 2.69129 15.5409 2.8661 15.366C3.04092 15.1912 3.26365 15.0722 3.50612 15.0239C3.7486 14.9757 3.99993 15.0005 4.22834 15.0951C4.45675 15.1897 4.65197 15.3499 4.78932 15.5555C4.92667 15.761 4.99999 16.0027 4.99999 16.2499C4.99965 16.5813 4.86785 16.8991 4.6335 17.1334C4.39915 17.3678 4.0814 17.4996 3.74999 17.4999ZM13.8387 15.6249H6.16124C6.04928 15.1952 5.82473 14.8032 5.51074 14.4892C5.19675 14.1752 4.80469 13.9506 4.37499 13.8387V6.16117C4.80466 6.04916 5.19669 5.82459 5.51067 5.51061C5.82465 5.19663 6.04922 4.8046 6.16124 4.37492H13.8387C13.9507 4.80463 14.1752 5.19669 14.4892 5.51068C14.8032 5.82467 15.1953 6.04922 15.625 6.16117V13.8387C15.1953 13.9506 14.8032 14.1751 14.4892 14.4891C14.1752 14.8031 13.9506 15.1952 13.8387 15.6249ZM16.25 17.4999C16.0028 17.4999 15.7611 17.4266 15.5555 17.2893C15.35 17.1519 15.1897 16.9567 15.0951 16.7283C15.0005 16.4999 14.9758 16.2485 15.024 16.0061C15.0722 15.7636 15.1913 15.5409 15.3661 15.366C15.5409 15.1912 15.7636 15.0722 16.0061 15.0239C16.2486 14.9757 16.4999 15.0005 16.7283 15.0951C16.9567 15.1897 17.152 15.3499 17.2893 15.5555C17.4267 15.761 17.5 16.0027 17.5 16.2499C17.4995 16.5813 17.3676 16.8989 17.1333 17.1333C16.899 17.3676 16.5814 17.4994 16.25 17.4999Z" fill="#0066FF"/>
</svg>
