<svg width="20" height="20" viewBox="0 0 20 20" fill="none" xmlns="http://www.w3.org/2000/svg">
<rect width="20" height="20" fill="#158AB3" fill-opacity="0.3"/>
<g id="Inmobiliaria" clip-path="url(#clip0_0_1)">
<rect width="1440" height="4865" transform="translate(-175 -3158)" fill="white"/>
<g id="Destacados" clip-path="url(#clip1_0_1)">
<rect width="1440" height="831" transform="translate(-175 -734)" fill="white"/>
<g id="Group 36">
<g id="Group 35">
<rect id="Rectangle 18" x="-25" y="-157" width="300" height="200" rx="5" fill="white"/>
<g id="Group 28">
<g id="Group 21">
<g id="Group 26">
<g id="Group 24">
<g id="cil:bathroom">
<rect width="20" height="20" fill="white"/>
<path id="Vector" d="M18.125 10.9375H3.125V3.90621C3.12428 3.64142 3.17608 3.37911 3.27741 3.13448C3.37875 2.88984 3.5276 2.66773 3.71535 2.48101L3.73098 2.46539C4.02522 2.17158 4.403 1.97577 4.8127 1.90473C5.2224 1.83368 5.64405 1.89085 6.02004 2.06844C5.66495 2.65882 5.51736 3.35095 5.60072 4.03483C5.68408 4.71872 5.99361 5.35513 6.48012 5.84293L6.90789 6.2707L6.12051 7.05812L7.00434 7.94195L7.79172 7.15457L12.1546 2.7918L12.942 2.00441L12.0581 1.12054L11.2707 1.90793L10.8429 1.48015C10.3307 0.969424 9.6556 0.654591 8.93515 0.590519C8.2147 0.526446 7.4946 0.717197 6.90035 1.12953C6.27372 0.733792 5.53112 0.56295 4.79455 0.645067C4.05798 0.727184 3.37124 1.05738 2.84715 1.5814L2.83152 1.59703C2.52732 1.89957 2.28615 2.25944 2.12196 2.65581C1.95777 3.05218 1.87383 3.47718 1.875 3.90621V10.9375H0.625V12.1875H1.875V13.3867C1.87497 13.4874 1.89122 13.5875 1.92312 13.6831L3.08594 17.1714C3.14799 17.3582 3.26731 17.5206 3.42695 17.6357C3.5866 17.7508 3.77844 17.8126 3.97523 17.8125H4.47914L4.02344 19.375H5.32551L5.78125 17.8125H13.9102L14.3789 19.375H15.6836L15.2148 17.8125H16.0246C16.2214 17.8127 16.4133 17.7508 16.573 17.6357C16.7327 17.5207 16.852 17.3582 16.9141 17.1714L18.0768 13.6831C18.1087 13.5875 18.125 13.4874 18.125 13.3867V12.1875H19.375V10.9375H18.125ZM7.36406 2.36402C7.70844 2.0204 8.17506 1.82741 8.66154 1.82741C9.14803 1.82741 9.61465 2.0204 9.95902 2.36402L10.3867 2.7918L7.79184 5.38668L7.36406 4.95898C7.02046 4.6146 6.82749 4.14798 6.82749 3.6615C6.82749 3.17502 7.02046 2.7084 7.36406 2.36402ZM16.875 13.3359L15.7995 16.5625H4.20047L3.125 13.3359V12.1875H16.875V13.3359Z" fill="#0066FF"/>
</g>
</g>
</g>
</g>
</g>
</g>
</g>
</g>
</g>
<defs>
<clipPath id="clip0_0_1">
<rect width="1440" height="4865" fill="white" transform="translate(-175 -3158)"/>
</clipPath>
<clipPath id="clip1_0_1">
<rect width="1440" height="831" fill="white" transform="translate(-175 -734)"/>
</clipPath>
</defs>
</svg>
