<svg width="20" height="20" viewBox="0 0 20 20" fill="none" xmlns="http://www.w3.org/2000/svg">
<g clip-path="url(#clip0_198_383)">
<path d="M10.625 12.5C10.28 12.5 10 11.94 10 11.25C10 10.56 10.28 10 10.625 10C10.97 10 11.25 10.56 11.25 11.25C11.25 11.94 10.97 12.5 10.625 12.5Z" fill="#0066FF"/>
<path d="M13.535 0.152528C13.6026 0.211282 13.6568 0.283879 13.6939 0.3654C13.731 0.446922 13.7501 0.535463 13.75 0.625028V1.25003H14.375C14.8723 1.25003 15.3492 1.44757 15.7008 1.7992C16.0525 2.15083 16.25 2.62775 16.25 3.12503V18.75H18.125C18.2908 18.75 18.4497 18.8159 18.5669 18.9331C18.6842 19.0503 18.75 19.2093 18.75 19.375C18.75 19.5408 18.6842 19.6998 18.5669 19.817C18.4497 19.9342 18.2908 20 18.125 20H1.875C1.70924 20 1.55027 19.9342 1.43306 19.817C1.31585 19.6998 1.25 19.5408 1.25 19.375C1.25 19.2093 1.31585 19.0503 1.43306 18.9331C1.55027 18.8159 1.70924 18.75 1.875 18.75H3.75V1.87503C3.75002 1.72444 3.80441 1.57893 3.90317 1.46525C4.00192 1.35157 4.1384 1.27736 4.2875 1.25628L13.0375 0.00627768C13.1261 -0.00636989 13.2163 0.000141799 13.3021 0.0253726C13.388 0.0506034 13.4674 0.0939654 13.535 0.152528ZM14.375 2.50003H13.75V18.75H15V3.12503C15 2.95927 14.9342 2.8003 14.8169 2.68309C14.6997 2.56588 14.5408 2.50003 14.375 2.50003ZM5 2.41753V18.75H12.5V1.34628L5 2.41753Z" fill="#0066FF"/>
</g>
<defs>
<clipPath id="clip0_198_383">
<rect width="20" height="20" fill="white"/>
</clipPath>
</defs>
</svg>
