<svg width="35" height="35" viewBox="0 0 35 35" fill="none" xmlns="http://www.w3.org/2000/svg">
<path d="M30.0781 3.82812H4.92188C4.31689 3.82812 3.82812 4.31689 3.82812 4.92188V30.0781C3.82812 30.6831 4.31689 31.1719 4.92188 31.1719H30.0781C30.6831 31.1719 31.1719 30.6831 31.1719 30.0781V4.92188C31.1719 4.31689 30.6831 3.82812 30.0781 3.82812ZM26.9199 11.8091H24.7358C23.0234 11.8091 22.6919 12.6226 22.6919 13.8188V16.4541H26.7798L26.2466 20.5796H22.6919V31.1719H18.4297V20.583H14.8647V16.4541H18.4297V13.4121C18.4297 9.88135 20.5864 7.95703 23.7378 7.95703C25.2485 7.95703 26.5439 8.06982 26.9233 8.12109V11.8091H26.9199Z" fill="#F5F5F5"/>
</svg>
