<svg width="35" height="35" viewBox="0 0 35 35" fill="none" xmlns="http://www.w3.org/2000/svg">
<path fill-rule="evenodd" clip-rule="evenodd" d="M10.8865 1.55456C12.5971 1.47581 13.1425 1.45831 17.5 1.45831C21.8575 1.45831 22.4029 1.47727 24.1121 1.55456C25.8213 1.63185 26.9879 1.90456 28.0088 2.29977C29.0777 2.70373 30.0475 3.33519 30.8496 4.15185C31.6663 4.95248 32.2963 5.92081 32.6988 6.99123C33.0954 8.01206 33.3667 9.17873 33.4454 10.885C33.5242 12.5985 33.5417 13.1439 33.5417 17.5C33.5417 21.8575 33.5227 22.4029 33.4454 24.1135C33.3681 25.8198 33.0954 26.9864 32.6988 28.0073C32.2963 29.0778 31.6652 30.0478 30.8496 30.8496C30.0475 31.6662 29.0777 32.2962 28.0088 32.6987C26.9879 33.0954 25.8213 33.3666 24.115 33.4454C22.4029 33.5242 21.8575 33.5416 17.5 33.5416C13.1425 33.5416 12.5971 33.5227 10.8865 33.4454C9.18022 33.3681 8.01355 33.0954 6.99272 32.6987C5.92219 32.2962 4.95225 31.6651 4.15043 30.8496C3.33431 30.0485 2.70276 29.079 2.2998 28.0087C1.90459 26.9879 1.63334 25.8212 1.55459 24.115C1.47584 22.4014 1.45834 21.856 1.45834 17.5C1.45834 13.1425 1.4773 12.5971 1.55459 10.8879C1.63189 9.17873 1.90459 8.01206 2.2998 6.99123C2.70336 5.92093 3.33539 4.95148 4.15189 4.1504C4.95257 3.33446 5.92153 2.70292 6.99126 2.29977C8.01209 1.90456 9.17876 1.63331 10.885 1.55456H10.8865ZM23.9823 4.44206C22.2906 4.36477 21.7831 4.34873 17.5 4.34873C13.2169 4.34873 12.7094 4.36477 11.0177 4.44206C9.45293 4.51352 8.60418 4.77456 8.03834 4.99477C7.29022 5.28644 6.75501 5.63206 6.19355 6.19352C5.66133 6.71131 5.25173 7.34164 4.9948 8.03831C4.77459 8.60415 4.51355 9.4529 4.44209 11.0177C4.3648 12.7094 4.34876 13.2169 4.34876 17.5C4.34876 21.7831 4.3648 22.2906 4.44209 23.9823C4.51355 25.5471 4.77459 26.3958 4.9948 26.9617C5.25147 27.6573 5.66126 28.2887 6.19355 28.8064C6.71126 29.3387 7.34272 29.7485 8.03834 30.0052C8.60418 30.2254 9.45293 30.4864 11.0177 30.5579C12.7094 30.6352 13.2154 30.6512 17.5 30.6512C21.7846 30.6512 22.2906 30.6352 23.9823 30.5579C25.5471 30.4864 26.3958 30.2254 26.9617 30.0052C27.7098 29.7135 28.245 29.3679 28.8065 28.8064C29.3388 28.2887 29.7486 27.6573 30.0052 26.9617C30.2254 26.3958 30.4865 25.5471 30.5579 23.9823C30.6352 22.2906 30.6513 21.7831 30.6513 17.5C30.6513 13.2169 30.6352 12.7094 30.5579 11.0177C30.4865 9.4529 30.2254 8.60415 30.0052 8.03831C29.7136 7.29019 29.3679 6.75498 28.8065 6.19352C28.2887 5.66133 27.6583 5.25175 26.9617 4.99477C26.3958 4.77456 25.5471 4.51352 23.9823 4.44206ZM15.4511 22.4452C16.5953 22.9215 17.8695 22.9858 19.056 22.6271C20.2424 22.2683 21.2675 21.5088 21.9561 20.4783C22.6448 19.4477 22.9543 18.21 22.8317 16.9766C22.7092 15.7432 22.1623 14.5906 21.2844 13.7156C20.7247 13.1563 20.048 12.728 19.303 12.4617C18.558 12.1953 17.7631 12.0974 16.9757 12.175C16.1883 12.2527 15.4279 12.504 14.7493 12.9108C14.0707 13.3176 13.4907 13.8698 13.0511 14.5277C12.6115 15.1855 12.3232 15.9327 12.207 16.7153C12.0908 17.498 12.1496 18.2967 12.3791 19.0539C12.6087 19.8111 13.0032 20.508 13.5344 21.0944C14.0656 21.6808 14.7202 22.1421 15.4511 22.4452ZM11.6696 11.6696C12.4353 10.9039 13.3442 10.2965 14.3446 9.88217C15.345 9.4678 16.4172 9.25453 17.5 9.25453C18.5828 9.25453 19.655 9.4678 20.6554 9.88217C21.6558 10.2965 22.5648 10.9039 23.3304 11.6696C24.0961 12.4352 24.7034 13.3442 25.1178 14.3446C25.5322 15.345 25.7455 16.4172 25.7455 17.5C25.7455 18.5828 25.5322 19.655 25.1178 20.6554C24.7034 21.6558 24.0961 22.5647 23.3304 23.3304C21.7841 24.8767 19.6868 25.7454 17.5 25.7454C15.3132 25.7454 13.2159 24.8767 11.6696 23.3304C10.1233 21.7841 9.25456 19.6868 9.25456 17.5C9.25456 15.3132 10.1233 13.2159 11.6696 11.6696ZM27.5742 10.4825C27.7639 10.3035 27.9158 10.0883 28.0209 9.84953C28.1259 9.61079 28.182 9.35339 28.1858 9.09259C28.1896 8.83178 28.1411 8.57286 28.043 8.33116C27.945 8.08946 27.7994 7.86989 27.615 7.68545C27.4305 7.50102 27.211 7.35546 26.9692 7.2574C26.7275 7.15934 26.4686 7.11078 26.2078 7.11458C25.947 7.11838 25.6896 7.17448 25.4509 7.27954C25.2121 7.3846 24.9969 7.53649 24.8179 7.72623C24.4698 8.09523 24.2793 8.58537 24.2867 9.09259C24.2941 9.59981 24.4988 10.0842 24.8575 10.4429C25.2162 10.8016 25.7006 11.0064 26.2078 11.0138C26.715 11.0211 27.2052 10.8306 27.5742 10.4825Z" fill="#F5F5F5"/>
</svg>
