<svg width="35" height="35" viewBox="0 0 35 35" fill="none" xmlns="http://www.w3.org/2000/svg">
<path fill-rule="evenodd" clip-rule="evenodd" d="M1.45831 4.13873C1.45831 3.42784 1.74071 2.74607 2.24339 2.24339C2.74606 1.74072 3.42784 1.45832 4.13873 1.45832H30.8583C31.2106 1.45774 31.5596 1.52666 31.8852 1.66112C32.2108 1.79559 32.5067 1.99296 32.756 2.24193C33.0052 2.49091 33.2029 2.7866 33.3377 3.11208C33.4725 3.43756 33.5418 3.78644 33.5416 4.13873V30.8583C33.542 31.2107 33.4729 31.5597 33.3383 31.8853C33.2037 32.2109 33.0062 32.5068 32.7571 32.7561C32.508 33.0053 32.2122 33.203 31.8866 33.3378C31.5611 33.4726 31.2121 33.5418 30.8598 33.5416H4.13873C3.78661 33.5416 3.43794 33.4723 3.11264 33.3375C2.78734 33.2027 2.49179 33.0051 2.24287 32.7561C1.99395 32.507 1.79655 32.2113 1.66193 31.886C1.52731 31.5606 1.45812 31.2119 1.45831 30.8598V4.13873ZM14.1575 13.6908H18.5019V15.8725C19.1289 14.6183 20.7331 13.4896 23.1437 13.4896C27.7652 13.4896 28.8604 15.9877 28.8604 20.5712V29.0616H24.1835V21.6154C24.1835 19.005 23.5564 17.5321 21.9639 17.5321C19.7546 17.5321 18.8358 19.1202 18.8358 21.6154V29.0616H14.1575V13.6908ZM6.13665 28.8619H10.815V13.4896H6.13665V28.8604V28.8619ZM11.4844 8.47582C11.4932 8.87638 11.4219 9.27467 11.2747 9.64732C11.1275 10.02 10.9074 10.3595 10.6272 10.6459C10.347 10.9323 10.0125 11.1598 9.64314 11.3152C9.27383 11.4706 8.8772 11.5506 8.47654 11.5506C8.07588 11.5506 7.67926 11.4706 7.30994 11.3152C6.94063 11.1598 6.60607 10.9323 6.32589 10.6459C6.04572 10.3595 5.82557 10.02 5.67838 9.64732C5.53119 9.27467 5.45991 8.87638 5.46873 8.47582C5.48604 7.68956 5.81054 6.94135 6.37273 6.3914C6.93492 5.84146 7.6901 5.53351 8.47654 5.53351C9.26299 5.53351 10.0182 5.84146 10.5804 6.3914C11.1425 6.94135 11.467 7.68956 11.4844 8.47582Z" fill="#F5F5F5"/>
</svg>
