<svg width="90" height="90" viewBox="0 0 90 90" fill="none" xmlns="http://www.w3.org/2000/svg">
<g clip-path="url(#clip0_222_620)">
<path d="M76.4151 53.4906V25.8963L55.1887 11.0378L33.9623 25.8963V32.2642H25.4717V21.651L55.1887 0.424561L84.9057 21.651V53.4906H76.4151ZM57.3113 28.0189H61.5566V23.7736H57.3113V28.0189ZM48.8208 28.0189H53.066V23.7736H48.8208V28.0189ZM57.3113 36.5095H61.5566V32.2642H57.3113V36.5095ZM48.8208 36.5095H53.066V32.2642H48.8208V36.5095ZM55.1887 89.5755L25.4717 81.2972V87.4529H0V40.7547H33.75L60.0708 50.5189C62.4057 51.368 64.2991 52.8538 65.7509 54.9765C67.2 57.0991 67.9245 59.434 67.9245 61.9812H76.4151C79.9528 61.9812 82.9599 63.1486 85.4363 65.4835C87.9127 67.8184 89.1509 70.8963 89.1509 74.717V78.9623L55.1887 89.5755ZM8.49057 78.9623H16.9811V49.2453H8.49057V78.9623ZM54.9764 80.6604L80.2358 72.8066C80.0236 72.0283 79.5453 71.4439 78.8009 71.0533C78.0594 70.6656 77.2642 70.4717 76.4151 70.4717H56.0377C53.8443 70.4717 51.8632 70.3302 50.0943 70.0472C48.3255 69.7642 46.4151 69.2689 44.3632 68.5613L37.0401 66.0142L39.4811 57.9481L47.9717 60.7076C49.2453 61.1321 50.7311 61.4505 52.4292 61.6628C54.1274 61.875 56.4623 61.9812 59.434 61.9812C59.434 61.2029 59.2047 60.4599 58.7462 59.7524C58.2849 59.0448 57.7359 58.5849 57.0991 58.3727L32.2642 49.2453H25.4717V72.5944L54.9764 80.6604Z" fill="#EEEEEE"/>
</g>
<defs>
<clipPath id="clip0_222_620">
<rect width="89.1509" height="90" fill="white"/>
</clipPath>
</defs>
</svg>
