<svg width="25" height="20" viewBox="0 0 25 20" fill="none" xmlns="http://www.w3.org/2000/svg">
<path d="M6.875 10C8.59805 10 10 8.59805 10 6.875C10 5.15195 8.59805 3.75 6.875 3.75C5.15195 3.75 3.75 5.15195 3.75 6.875C3.75 8.59805 5.15195 10 6.875 10ZM20.625 5H11.875C11.5297 5 11.25 5.27969 11.25 5.625V11.25H2.5V3.125C2.5 2.77969 2.22031 2.5 1.875 2.5H0.625C0.279687 2.5 0 2.77969 0 3.125V16.875C0 17.2203 0.279687 17.5 0.625 17.5H1.875C2.22031 17.5 2.5 17.2203 2.5 16.875V15H22.5V16.875C22.5 17.2203 22.7797 17.5 23.125 17.5H24.375C24.7203 17.5 25 17.2203 25 16.875V9.375C25 6.95859 23.0414 5 20.625 5Z" fill="#0066FF"/>
</svg>
